<svg width="600" height="600" viewBox="-17 -73.5 600 600" fill="none" xmlns="http://www.w3.org/2000/svg">
<path d="M202.969 0C233.552 0.000138626 258.344 24.7893 258.344 55.3682C258.344 85.947 233.552 110.736 202.969 110.736C184.814 110.736 168.699 102.001 158.601 88.5049L106.134 118.792C109.103 125.58 110.751 133.078 110.751 140.96C110.751 149.092 108.996 156.815 105.847 163.771L157.931 193.837C167.978 179.822 184.407 170.69 202.969 170.69C233.552 170.691 258.344 195.48 258.344 226.059C258.343 256.637 233.552 281.427 202.969 281.427C184.815 281.427 168.7 272.692 158.602 259.196L106.134 289.484C109.103 296.272 110.751 303.769 110.751 311.651C110.751 319.784 108.996 327.506 105.847 334.462L158.012 364.575C168.083 350.78 184.379 341.817 202.769 341.817C233.352 341.817 258.144 366.607 258.145 397.186C258.144 427.764 233.352 452.554 202.769 452.554C172.186 452.554 147.393 427.764 147.393 397.186C147.393 389.394 149.003 381.978 151.908 375.252L99.5576 345.031C89.4477 358.388 73.4205 367.019 55.376 367.02C24.793 367.02 0.000298198 342.23 0 311.651C-2.67368e-06 281.072 24.7928 256.283 55.376 256.283C73.6742 256.283 89.8989 265.157 99.9814 278.836L152.372 248.592C149.301 241.708 147.593 234.083 147.593 226.059C147.593 218.437 149.133 211.174 151.919 204.566L99.5576 174.34C89.4477 187.697 73.4205 196.328 55.376 196.328C24.793 196.328 0.000306445 171.539 0 140.96C-2.67366e-06 110.381 24.7928 85.5918 55.376 85.5918C73.674 85.5919 89.8979 94.4662 99.9805 108.145L152.371 77.9004C149.3 71.0171 147.593 63.3919 147.593 55.3682C147.593 24.7892 172.386 2.6733e-06 202.969 0ZM363.031 0C393.614 2.67328e-06 418.407 24.7892 418.407 55.3682C418.407 63.3921 416.699 71.017 413.628 77.9004L466.019 108.145C476.101 94.4659 492.326 85.5919 510.624 85.5918C541.207 85.5918 566 110.381 566 140.96C566 171.539 541.207 196.328 510.624 196.328C492.581 196.328 476.554 187.699 466.444 174.344L414.082 204.57C416.867 211.177 418.407 218.438 418.407 226.059C418.407 234.083 416.698 241.708 413.627 248.592L466.018 278.836C476.1 265.157 492.326 256.283 510.624 256.283C541.207 256.283 566 281.072 566 311.651C566 342.23 541.207 367.02 510.624 367.02C492.581 367.019 476.553 358.39 466.443 345.035L414.093 375.256C416.997 381.981 418.607 389.395 418.607 397.186C418.607 427.764 393.814 452.554 363.231 452.554C332.648 452.554 307.856 427.764 307.855 397.186C307.856 366.607 332.648 341.817 363.231 341.817C381.622 341.817 397.918 350.782 407.989 364.579L460.153 334.466C457.003 327.509 455.249 319.785 455.249 311.651C455.249 303.769 456.896 296.272 459.865 289.484L407.397 259.196C397.299 272.691 381.185 281.427 363.031 281.427C332.448 281.427 307.657 256.637 307.656 226.059C307.656 195.48 332.448 170.691 363.031 170.69C381.595 170.69 398.024 179.824 408.071 193.841L460.154 163.774C457.004 156.818 455.249 149.094 455.249 140.96C455.249 133.078 456.896 125.579 459.865 118.792L407.398 88.5049C397.3 102.001 381.186 110.736 363.031 110.736C332.448 110.736 307.656 85.947 307.656 55.3682C307.656 24.7893 332.448 0.000138626 363.031 0Z" fill="#162933"/>
</svg>
